<?xml version="1.0" encoding="UTF-8"?>
<svg version="1.1" xmlns="http://www.w3.org/2000/svg" width="936" height="382">
<path d="M0 0 C308.88 0 617.76 0 936 0 C936 126.06 936 252.12 936 382 C627.12 382 318.24 382 0 382 C0 255.94 0 129.88 0 0 Z " fill="#FEFEFE" transform="translate(0,0)"/>
<path d="M0 0 C6.72205895 2.61954632 12.73407453 6.61601461 18.75 10.546875 C20.91378506 12.00254772 20.91378506 12.00254772 23 13 C25.93684999 21.81054997 25.12041001 31.83546073 25 41 C25.85980469 40.96519531 26.71960938 40.93039063 27.60546875 40.89453125 C36.06723363 40.70075037 43.92534663 41.30019258 52 44 C54 46 54 46 54.125 48.3125 C52.36518747 52.51649659 49.09292538 54.2040037 45 56 C41.66940437 56.53458596 38.48491323 56.43782124 35.125 56.25 C33.44023721 56.18892099 31.75533858 56.13144861 30.0703125 56.078125 C29.33570801 56.04106445 28.60110352 56.00400391 27.84423828 55.96582031 C25.90235601 55.86942073 25.90235601 55.86942073 24 57 C23.98826752 57.8695079 23.97653503 58.73901581 23.96444702 59.63487244 C23.84827966 67.85909883 23.70395432 76.08225683 23.52857018 84.30544186 C23.43939542 88.5324066 23.36083714 92.75899633 23.30712891 96.98657227 C23.25482302 101.07222803 23.17386256 105.1564314 23.07362747 109.24118233 C23.04044915 110.79377636 23.01732171 112.34662118 23.00477219 113.89951897 C22.92174714 123.23495844 22.12126073 129.66985839 16 137 C14.77894492 139.73588075 14.77894492 139.73588075 14.0625 142.1875 C12.17442374 147.16798099 9.78443795 150.49572189 5 153 C-0.78971001 154.01090175 -4.09122482 152.87732053 -9.04296875 149.875 C-14.88818273 144.27479498 -16.93112292 137.78594357 -18.3125 130 C-18.48072266 129.12988281 -18.64894531 128.25976562 -18.82226562 127.36328125 C-19.22963166 125.24497787 -19.61694816 123.12283479 -20 121 C-20.61746094 122.05058594 -21.23492188 123.10117188 -21.87109375 124.18359375 C-29.15378415 136.34942515 -36.00879429 146.33626476 -50 151 C-58.04533453 151.6235901 -65.35268636 152.01542809 -72 147 C-72.61359375 146.53722656 -73.2271875 146.07445312 -73.859375 145.59765625 C-82.78763403 137.79496834 -84.79676176 126.25707407 -86 115 C-86.40453554 108.9033918 -86.50461939 102.7949348 -86.625 96.6875 C-86.66329313 95.06052858 -86.70235087 93.43357498 -86.7421875 91.80664062 C-86.83691647 87.87124286 -86.92138085 83.9357512 -87 80 C-87.66 79.67 -88.32 79.34 -89 79 C-103.15615255 90.10430667 -112.53188369 108.0820711 -118 125 C-120.5492768 131.62811968 -125.41784738 135.94026225 -131.5 139.4375 C-136.776312 140.6246702 -140.4652126 140.72395632 -145.3125 138.4375 C-148.51104249 135.53649634 -149.5582332 133.03694703 -151 129 C-151.65288627 127.65986503 -152.31225595 126.32258472 -153 125 C-153.495 125.680625 -153.99 126.36125 -154.5 127.0625 C-157.07224526 130.08488819 -159.78388143 132.54725844 -162.8046875 135.10546875 C-164.28259571 136.38088775 -165.72563515 137.69772611 -167.1328125 139.05078125 C-176.21186328 147.69052312 -187.53243143 152.05915905 -199.9375 153.4375 C-210.49301013 152.94102406 -222.15661654 147.41953242 -229.375 139.75 C-232.61763794 135.65064237 -234.32237549 130.90458459 -236 126 C-238.54942683 128.36457413 -240.36841599 130.93732475 -242.3125 133.8125 C-251.0143621 145.81947303 -261.81272524 157.96254505 -277 161 C-286.33484186 161.63287063 -293.01943168 159.33582488 -300.17578125 153.3046875 C-305.56959711 146.49023063 -306.61234386 139.74245998 -306.375 131.25 C-306.36210937 130.28497559 -306.34921875 129.31995117 -306.3359375 128.32568359 C-306.19942803 121.96626205 -305.5997978 115.89818227 -304.453125 109.640625 C-303.58285389 104.56904509 -303.05272409 100.42091387 -306 96 C-310.97637362 97.21374966 -313.84306772 99.32973493 -317.484375 102.7578125 C-319 104 -319 104 -321 104 C-321.26296875 104.5775 -321.5259375 105.155 -321.796875 105.75 C-323.0633429 108.11845944 -324.5232179 109.9465294 -326.25 112 C-329.82938881 116.47981718 -332.20371824 121.180628 -334.54296875 126.3984375 C-336.15468058 129.27618569 -337.06162722 130.51095974 -340 132 C-342.70180937 132.29537466 -345.11907764 132.41976602 -347.8125 132.375 C-348.49892578 132.38660156 -349.18535156 132.39820313 -349.89257812 132.41015625 C-355.92575316 132.37590928 -360.61337697 130.94698195 -365.375 127.0625 C-368.28657221 123.36704296 -368.15882256 119.51431392 -368.31640625 114.921875 C-368.37924805 113.18164062 -368.37924805 113.18164062 -368.44335938 111.40625 C-368.48267578 110.1996875 -368.52199219 108.993125 -368.5625 107.75 C-368.60568359 106.52796875 -368.64886719 105.3059375 -368.69335938 104.046875 C-368.79937355 101.0313608 -368.90143936 98.01576552 -369 95 C-378.67448993 100.54717156 -385.5588399 112.53104405 -389 123 C-389.84399636 127.14780422 -390.17109361 131.28192296 -390.41796875 135.50390625 C-391.08253018 139.49573496 -392.14807879 141.17941859 -395 144 C-397.9375 145.1875 -397.9375 145.1875 -401 146 C-401.73476563 146.32871094 -402.46953125 146.65742188 -403.2265625 146.99609375 C-406.65830637 148.23828836 -409.80190145 148.57477937 -413.4375 148.875 C-414.71496094 148.99617187 -415.99242187 149.11734375 -417.30859375 149.2421875 C-421.73769026 148.95160127 -423.64109203 147.84819682 -427 145 C-432.66526271 137.27040868 -431.80086267 126.14040346 -432 117 C-432.53173828 117.98226562 -432.53173828 117.98226562 -433.07421875 118.984375 C-438.08456064 127.57353252 -444.45449922 133.63647237 -452 140 C-453.13888672 140.96486328 -453.13888672 140.96486328 -454.30078125 141.94921875 C-462.71163251 148.64081785 -474.95005932 153.86022216 -485.84765625 153.34765625 C-496.74428949 151.587583 -507.92018826 146.62278875 -514.8203125 137.79296875 C-521.63387986 127.43724882 -520.94819244 114.81288262 -518.75390625 103.07421875 C-515.59646707 90.1990652 -509.10573452 75.31155606 -497.8359375 67.5 C-491.35970878 63.76114631 -484.48370864 60.77955298 -477 60 C-476.34902344 59.92394531 -475.69804687 59.84789062 -475.02734375 59.76953125 C-470.93624651 59.48659555 -469.28694678 59.76800047 -466.0625 62.375 C-459.98280562 70.11279284 -459.88956513 86.49805095 -461 96 C-462.93679316 103.28327008 -467.35639603 110.07648443 -473.78613281 114.12451172 C-478.09740645 116.60596395 -482.52356606 118.83379773 -487 121 C-487.08728882 124.24983 -487.14048658 127.4993575 -487.1875 130.75 C-487.21263672 131.67039063 -487.23777344 132.59078125 -487.26367188 133.5390625 C-487.27817383 134.87324219 -487.27817383 134.87324219 -487.29296875 136.234375 C-487.31653442 137.45979004 -487.31653442 137.45979004 -487.34057617 138.70996094 C-486.91655776 141.56106684 -485.96074758 142.91611935 -484 145 C-478.28338253 146.2559935 -472.22269267 145.52015271 -467.15625 142.58203125 C-455.57142838 134.082298 -445.91760185 123.0611796 -437.7265625 111.34765625 C-436.25343641 109.34460471 -434.89520888 107.6040455 -433 106 C-432.34 106 -431.68 106 -431 106 C-428.86818345 96.08601816 -426.85023217 86.21364146 -425.75 76.125 C-425.63035889 75.03082764 -425.63035889 75.03082764 -425.50830078 73.91455078 C-425.1941347 70.80263776 -425.00643103 67.80454257 -425.109375 64.67578125 C-425 62 -425 62 -422.5 59.0625 C-419.78924478 57.11453869 -418.91044041 56.99691174 -415.375 56.875 C-407.67292268 58.43022715 -398.97133842 61.814364 -393 67 C-391.625 70.25 -391.625 70.25 -391 73 C-390.34 73 -389.68 73 -389 73 C-386.9053775 80.95956551 -386.41005616 88.80966773 -386 97 C-385.45085937 96.21689453 -385.45085937 96.21689453 -384.890625 95.41796875 C-378.30409547 86.46342503 -368.85276328 75.5977109 -358 72 C-353.02611496 71.46684272 -350.19374575 72.58772834 -345.9375 75.125 C-344.93589844 75.70507812 -343.93429687 76.28515625 -342.90234375 76.8828125 C-337.44187184 80.8660908 -334.61238017 84.62629722 -333.49414062 91.21484375 C-333.39294922 91.92769531 -333.29175781 92.64054687 -333.1875 93.375 C-333.06697266 94.11105469 -332.94644531 94.84710938 -332.82226562 95.60546875 C-332.53079777 97.40091071 -332.26292253 99.20015637 -332 101 C-329.07795885 101.31657588 -329.07795885 101.31657588 -327.56469727 99.82592773 C-327.07026123 99.28395752 -326.5758252 98.7419873 -326.06640625 98.18359375 C-325.50574463 97.58708008 -324.94508301 96.99056641 -324.36743164 96.37597656 C-323.7718042 95.7362793 -323.17617676 95.09658203 -322.5625 94.4375 C-313.89033803 85.44548636 -304.86926171 79.01778413 -292.1875 77.5625 C-286.08496848 77.76394279 -280.56905968 80.57366586 -276.171875 84.7265625 C-267.258102 95.666193 -267.47891342 107.83392845 -267.75 121.1875 C-267.77010461 122.91990113 -267.78834834 124.65232489 -267.8046875 126.38476562 C-267.84834944 130.59041203 -267.91715444 134.79495046 -268 139 C-263.05839216 139.88138071 -260.15708569 140.3508628 -255.8125 137.4609375 C-243.09084979 127.20684875 -237.76524772 111.1764529 -232.6875 96.1875 C-228.28068642 83.93472752 -222.13468289 71.48674762 -210.1875 65.0625 C-202.43677301 61.66326981 -193.5004662 58.80695211 -185 60 C-181.13896946 62.79751314 -179.69541056 65.18942075 -178.85546875 69.765625 C-178.61111987 71.59097714 -178.38904274 73.41942705 -178.1875 75.25 C-178.06697266 76.15363281 -177.94644531 77.05726563 -177.82226562 77.98828125 C-176.33835921 89.77473789 -176.32979564 99.27020121 -183.8125 109.125 C-187.72666905 113.39187439 -192.70209376 115.72092594 -197.93286133 118.03564453 C-200.13433704 119.01566079 -200.13433704 119.01566079 -203 121 C-204.49944599 125.32904567 -203.98681596 129.5974111 -203.625 134.125 C-203.53476562 135.32382813 -203.44453125 136.52265625 -203.3515625 137.7578125 C-203.07695314 140.29032107 -202.71454891 142.5656893 -202 145 C-190.79180995 145.6150836 -185.06201613 144.68285634 -176.62988281 137.29199219 C-170.69578974 131.92727627 -165.01166804 126.24044829 -160 120 C-159.42258057 119.35933594 -158.84516113 118.71867187 -158.25024414 118.05859375 C-151.97472256 110.38374024 -151.58184619 102.6031921 -151.0625 93.125 C-150.95164937 91.53315958 -150.8389979 89.94144362 -150.72460938 88.34985352 C-149.95984982 77.03179807 -149.75889574 65.73338326 -150.10961914 54.39306641 C-150.13531982 53.32362793 -150.16102051 52.25418945 -150.1875 51.15234375 C-150.22230469 50.22413818 -150.25710938 49.29593262 -150.29296875 48.33959961 C-150 46 -150 46 -148.703125 44.20922852 C-146.36691543 42.55050632 -144.25350177 42.47327617 -141.44140625 42.58203125 C-136.29060605 43.46384824 -131.66998456 45.73100346 -127 48 C-126.21753906 48.37253906 -125.43507813 48.74507812 -124.62890625 49.12890625 C-119.09845591 52.12935852 -116.31550315 56.19633545 -114 62 C-111.43705586 72.23565742 -113.2677525 83.57854895 -114 94 C-113.43345703 93.01773438 -113.43345703 93.01773438 -112.85546875 92.015625 C-106.40760024 81.3245456 -97.56514423 70.09278846 -86.6875 63.625 C-78.54206795 61.73071348 -71.26459821 62.87850236 -64 67 C-58.15229212 71.28907757 -54.14755534 77.10163936 -52 84 C-51.12352612 90.63207864 -51.3389501 97.38665869 -51.375 104.0625 C-51.37887122 106.75614168 -51.37522731 109.4491164 -51.35440063 112.14268494 C-51.3424844 113.80781675 -51.34468889 115.47313761 -51.36410522 117.13819885 C-51.33754744 122.71661413 -50.56302905 127.97486268 -48 133 C-45.2019983 135.27891715 -45.2019983 135.27891715 -42.125 134.9375 C-37.29058913 133.48717674 -35.03363074 130.73872066 -32.52294922 126.51538086 C-30.92586347 123.5323711 -29.38971205 120.52564677 -27.875 117.5 C-26.83198221 115.44727949 -25.78775219 113.3951744 -24.7421875 111.34375 C-24.2869873 110.43818359 -23.83178711 109.53261719 -23.36279297 108.59960938 C-22 106 -22 106 -20.39111328 103.47851562 C-17.59346954 98.49401593 -17.80636393 93.23180598 -17.68359375 87.63671875 C-17.66281265 86.84473587 -17.64203156 86.05275299 -17.62062073 85.23677063 C-17.55552196 82.72043072 -17.49642577 80.20399128 -17.4375 77.6875 C-17.394277 75.97590139 -17.35066152 74.26431265 -17.30664062 72.55273438 C-17.19988153 68.36859016 -17.09850365 64.18434638 -17 60 C-17.74620605 59.95029053 -18.49241211 59.90058105 -19.26123047 59.84936523 C-20.24494629 59.77403564 -21.22866211 59.69870605 -22.2421875 59.62109375 C-23.21526855 59.55075928 -24.18834961 59.4804248 -25.19091797 59.40795898 C-29.27013003 58.81554082 -31.6676693 57.39058507 -35 55 C-36.39935013 52.20129973 -36.25265405 50.09501208 -36 47 C-34.47796315 44.98677503 -33.60859689 44.10902692 -31.09887695 43.65942383 C-30.40238037 43.67513428 -29.70588379 43.69084473 -28.98828125 43.70703125 C-28.23095703 43.71669922 -27.47363281 43.72636719 -26.69335938 43.73632812 C-25.90767578 43.76146484 -25.12199219 43.78660156 -24.3125 43.8125 C-23.11657227 43.83280273 -23.11657227 43.83280273 -21.89648438 43.85351562 C-19.93070033 43.88882911 -17.96526418 43.94263553 -16 44 C-14.87061343 41.74122686 -14.72752215 40.13586939 -14.5 37.625 C-14.4182251 36.73014893 -14.3364502 35.83529785 -14.25219727 34.91333008 C-14.16897217 33.95193115 -14.08574707 32.99053223 -14 32 C-13.91097412 31.01990967 -13.82194824 30.03981934 -13.73022461 29.0300293 C-13.30874839 24.23636736 -12.94956367 19.45301529 -12.75390625 14.64453125 C-12.71974609 13.82662109 -12.68558594 13.00871094 -12.65039062 12.16601562 C-12.59293154 10.62738905 -12.54812697 9.08822413 -12.51757812 7.54882812 C-12.41165991 4.64015097 -12.3181184 2.49366544 -10.71875 0.01171875 C-7.26668846 -2.0202902 -3.71817648 -0.93386758 0 0 Z " fill="#020202" transform="translate(759,66)"/>
<path d="M0 0 C5.86843507 2.99748907 8.1453098 7.28569378 10.3203125 13.35546875 C11.91200574 19.20601687 12.07314108 24.93196824 12.14453125 30.94921875 C12.17623491 32.88102538 12.2081453 34.81282864 12.24023438 36.74462891 C12.25562256 37.76099426 12.27101074 38.77735962 12.28686523 39.82452393 C12.57356657 58.26291411 13.0946488 76.68241624 13.8984375 95.10546875 C13.94032196 96.09554932 13.98220642 97.08562988 14.02536011 98.10571289 C14.14507801 100.91054896 14.27049341 103.71505959 14.3984375 106.51953125 C14.43385147 107.34244659 14.46926544 108.16536194 14.50575256 109.01321411 C14.70866297 113.24707612 15.15231617 117.3005321 15.8984375 121.48046875 C16.13563684 124.47997711 16.17370944 127.47244142 16.2109375 130.48046875 C16.23994141 131.26164063 16.26894531 132.0428125 16.29882812 132.84765625 C16.35808266 138.26260902 15.38791395 141.13302928 11.8984375 145.48046875 C11.47820312 146.11855469 11.05796875 146.75664062 10.625 147.4140625 C9.5234375 148.91796875 9.5234375 148.91796875 6.8984375 151.48046875 C4.2109375 151.35546875 4.2109375 151.35546875 0.8984375 150.48046875 C-0.79006302 150.54019063 -2.47777698 150.62538864 -4.1640625 150.73046875 C-7.86806317 150.75268165 -8.82436527 150.67330161 -11.9765625 148.48046875 C-17.90219898 140.11486431 -18.79277662 133.6483447 -19.1484375 123.5234375 C-19.20846966 122.17110006 -19.27004239 120.81883023 -19.33306885 119.46662903 C-19.49386551 115.92212075 -19.63258336 112.37707832 -19.76690674 108.83148193 C-19.87923444 105.96076818 -20.00682612 103.0908325 -20.1353569 100.22080517 C-21.68088406 65.6887986 -21.68088406 65.6887986 -19.6640625 57.16796875 C-16.65451603 43.04297469 -16.96785929 28.85047803 -17.1015625 14.48046875 C-27.07050176 29.84244072 -36.41504849 45.15869283 -39.671875 63.4140625 C-40.1015625 65.48046875 -40.1015625 65.48046875 -41.1015625 67.48046875 C-43.2890625 67.41796875 -43.2890625 67.41796875 -46.1015625 66.48046875 C-51.10336442 60.86480932 -51.99270701 56.20756852 -52.6640625 48.85546875 C-54.0541655 36.34534325 -54.0541655 36.34534325 -58.1015625 24.48046875 C-59.0915625 23.82046875 -60.0815625 23.16046875 -61.1015625 22.48046875 C-61.11995682 23.02994675 -61.13835114 23.57942474 -61.15730286 24.14555359 C-62.76400131 71.65329585 -62.76400131 71.65329585 -64.99755859 90.20751953 C-65.76252979 96.68721907 -66.28821697 103.12984673 -66.59765625 109.64453125 C-66.6360965 110.42681595 -66.67453674 111.20910065 -66.71414185 112.01509094 C-66.89916393 115.84935785 -67.06148601 119.68276585 -67.19140625 123.51928711 C-67.25327386 124.90351148 -67.31574338 126.28770913 -67.37890625 127.671875 C-67.42265381 128.89076416 -67.46640137 130.10965332 -67.51147461 131.36547852 C-68.20132146 135.00708216 -69.17720838 136.26669252 -72.1015625 138.48046875 C-72.7615625 138.48046875 -73.4215625 138.48046875 -74.1015625 138.48046875 C-74.3490625 139.07859375 -74.5965625 139.67671875 -74.8515625 140.29296875 C-76.33447642 142.88806811 -77.54892083 143.92877732 -80.1015625 145.48046875 C-87.31402364 146.53142737 -93.54648961 145.50588701 -100.1015625 142.48046875 C-100.1015625 138.48046875 -100.1015625 138.48046875 -99.1015625 137.48046875 C-99.5759375 137.02671875 -100.0503125 136.57296875 -100.5390625 136.10546875 C-105.09295399 131.3694216 -103.38319224 123.01854124 -103.3203125 116.890625 C-103.17506855 110.86390873 -102.59335257 104.95944077 -101.8515625 98.98046875 C-100.22867086 85.84779276 -99.17393171 72.68584757 -98.18640137 59.49145508 C-98.0068517 57.09429402 -97.82486052 54.69731441 -97.64025879 52.30053711 C-94.24810877 29.80675697 -94.24810877 29.80675697 -98.1015625 8.48046875 C-98.4140625 5.85546875 -98.4140625 5.85546875 -98.1015625 3.48046875 C-92.77893205 -0.06795155 -85.33518973 0.74282286 -79.1015625 1.48046875 C-74.76972187 2.63794451 -71.022103 4.32216241 -67.1015625 6.48046875 C-66.31394531 6.90328125 -65.52632812 7.32609375 -64.71484375 7.76171875 C-52.52585711 15.07936518 -46.43337296 25.43221042 -42.1015625 38.48046875 C-37.45869463 31.14006871 -32.98218415 23.70394401 -28.6640625 16.16796875 C-28.00881592 15.05832764 -28.00881592 15.05832764 -27.34033203 13.92626953 C-24.54528677 8.98271972 -23.58792532 5.12597138 -23.1015625 -0.51953125 C-17.79843013 -7.59037441 -6.48749003 -2.69934026 0 0 Z " fill="#020202" transform="translate(212.1015625,60.51953125)"/>
<path d="M0 0 C4.11996764 4.0055241 6.04202678 7.37516192 6.6875 13 C5.99527642 24.24863324 0.56076194 34.47841999 -7.625 42.125 C-14.67756496 47.74543491 -20.95861826 49.86020981 -30.015625 49.50390625 C-35.26803595 48.89612727 -37.85627578 47.10153614 -41.5 43.375 C-46.04137562 36.94138454 -46.5045948 30.87064709 -45.75 23.1875 C-44.01614978 13.50586655 -40.3396616 6.52598877 -32.75 0.1875 C-20.96888038 -7.28135036 -11.53564221 -7.60303691 0 0 Z " fill="#040404" transform="translate(850.75,158.8125)"/>
<path d="M0 0 C4.41982786 0.04761035 6.89327528 1.46314607 10.3125 4.3125 C12.63695742 7.79918613 12.4854826 9.58808834 11.91015625 13.6484375 C9.65403197 23.70514833 4.99795062 32.52219959 -3.6875 38.3125 C-8.93294666 38.85890069 -8.93294666 38.85890069 -11.5 37 C-15.18303801 31.76620915 -14.16433415 24.37889003 -13.6875 18.3125 C-12.78596108 15.0003244 -11.44371954 12.25079038 -9.6875 9.3125 C-9.2440625 8.55710938 -8.800625 7.80171875 -8.34375 7.0234375 C-4.29637873 0.36409989 -4.29637873 0.36409989 0 0 Z " fill="#FAFAFA" transform="translate(837.6875,161.6875)"/>
<path d="M0 0 C-0.99684614 10.25327463 -6.58552029 19.90788897 -14 27 C-16.875 27.9375 -16.875 27.9375 -19 28 C-18.20289616 17.23909812 -14.90586829 10.16518115 -7.0234375 2.71484375 C-4.37426533 0.46969591 -3.52536398 0 0 0 Z " fill="#F8F8F8" transform="translate(574,150)"/>
<path d="M0 0 C-0.99684614 10.25327463 -6.58552029 19.90788897 -14 27 C-16.875 27.9375 -16.875 27.9375 -19 28 C-18.25197844 17.90170893 -15.36401573 10.58280168 -7.90234375 3.59375 C-3.6127451 0 -3.6127451 0 0 0 Z " fill="#F8F8F8" transform="translate(290,150)"/>
</svg>
